<?xml version="1.0" encoding="UTF-8" standalone="no" ?>
<!DOCTYPE svg PUBLIC "-//W3C//DTD SVG 1.1//EN" "http://www.w3.org/Graphics/SVG/1.1/DTD/svg11.dtd">
<svg xmlns="http://www.w3.org/2000/svg" xmlns:xlink="http://www.w3.org/1999/xlink" version="1.1" width="640" height="480" viewBox="0 0 640 480" xml:space="preserve">
<desc>Created with Fabric.js 3.6.6</desc>
<defs>
</defs>
<g transform="matrix(1 0 0 1 0 0)"  >
<g style=""   >
</g>
</g>
<g transform="matrix(5.95 0 0 5.95 317.03 313.19)"  >
<g style=""   >
		<g transform="matrix(1 0 0 1 0 -3.95)"  >
<path style="stroke: none; stroke-width: 1; stroke-dasharray: none; stroke-linecap: butt; stroke-dashoffset: 0; stroke-linejoin: miter; stroke-miterlimit: 4; fill: rgb(0,0,0); fill-rule: nonzero; opacity: 1;"  transform=" translate(-50, -58.55)" d="M 50 72.61 L 50 72.61 c 7.77 0 14.06 -6.3 14.06 -14.06 c 0 -7.77 -6.3 -14.06 -14.06 -14.06 c -7.77 0 -14.06 6.3 -14.06 14.06 c 0 3.73 1.48 7.31 4.12 9.94 C 42.69 71.14 46.27 72.62 50 72.61 z M 41.72 50.27 L 41.72 50.27 c 4.58 -4.57 12 -4.57 16.57 0.01 s 4.57 12 -0.01 16.57 c -4.58 4.57 -12 4.57 -16.57 -0.01 c -2.2 -2.2 -3.43 -5.18 -3.43 -8.29 C 38.27 55.44 39.51 52.46 41.72 50.27 z" stroke-linecap="round" />
</g>
		<g transform="matrix(1 0 0 1 0 -39.76)"  >
<path style="stroke: none; stroke-width: 1; stroke-dasharray: none; stroke-linecap: butt; stroke-dashoffset: 0; stroke-linejoin: miter; stroke-miterlimit: 4; fill: rgb(0,0,0); fill-rule: nonzero; opacity: 1;"  transform=" translate(-50, -22.74)" d="M 50 18.05 c -2.59 0 -4.69 2.1 -4.69 4.69 c 0 2.59 2.1 4.69 4.69 4.69 c 2.59 0 4.69 -2.1 4.69 -4.69 C 54.69 20.15 52.59 18.05 50 18.05 z M 50 25.08 c -1.29 0 -2.34 -1.05 -2.34 -2.34 s 1.05 -2.34 2.34 -2.34 c 1.29 0 2.34 1.05 2.34 2.34 S 51.29 25.08 50 25.08 z" stroke-linecap="round" />
</g>
		<g transform="matrix(1 0 0 1 0.02 -3.29)"  >
<path style="stroke: none; stroke-width: 1; stroke-dasharray: none; stroke-linecap: butt; stroke-dashoffset: 0; stroke-linejoin: miter; stroke-miterlimit: 4; fill: rgb(0,0,0); fill-rule: nonzero; opacity: 1;"  transform=" translate(-50.02, -59.21)" d="M 48.61 58.55 H 45.5 c -0.64 -0.07 -1.22 0.4 -1.29 1.04 c -0.04 0.36 0.09 0.71 0.35 0.96 l 6.99 6.79 c 0.46 0.45 1.21 0.44 1.66 -0.02 c 0.45 -0.46 0.44 -1.21 -0.02 -1.66 l -4.9 -4.77 h 0.34 c 2.37 -0.01 4.42 -1.65 4.94 -3.97 h 1.1 c 0.65 0 1.17 -0.52 1.17 -1.17 s -0.52 -1.17 -1.17 -1.17 h -1.13 c -0.13 -0.53 -0.35 -1.04 -0.65 -1.5 h 1.78 c 0.65 0 1.17 -0.52 1.17 -1.17 s -0.52 -1.17 -1.17 -1.17 h -9.22 c -0.65 0 -1.17 0.52 -1.17 1.17 s 0.52 1.17 1.17 1.17 h 3.18 c 1.03 0 1.96 0.58 2.42 1.5 h -5.61 c -0.65 0 -1.17 0.52 -1.17 1.17 s 0.52 1.17 1.17 1.17 h 5.66 C 50.66 57.91 49.69 58.55 48.61 58.55 z" stroke-linecap="round" />
</g>
		<g transform="matrix(1 0 0 1 0 -12.49)"  >
<path style="stroke: none; stroke-width: 1; stroke-dasharray: none; stroke-linecap: butt; stroke-dashoffset: 0; stroke-linejoin: miter; stroke-miterlimit: 4; fill: rgb(0,0,0); fill-rule: nonzero; opacity: 1;"  transform=" translate(-50, -50.02)" d="M 89.88 88.23 L 89.88 88.23 l -1.69 -3.38 c -0.59 -1.2 -1.81 -1.96 -3.15 -1.95 h -0.17 l -1.37 -2.74 c -0.47 -0.96 -1.36 -1.64 -2.4 -1.87 v -1.78 c 0 -1.55 -1.02 -2.92 -2.5 -3.37 V 43.96 c 1.48 -0.45 2.5 -1.82 2.5 -3.37 v -1.61 h 0.7 c 1.94 0 3.51 -1.57 3.52 -3.51 l 0.05 -3.44 v -0.03 c 0 -0.02 0 -0.05 0 -0.07 V 31.9 c 0 -0.02 0 -0.04 0 -0.06 c 0 -0.02 -0.01 -0.04 -0.01 -0.05 c 0 -0.02 -0.01 -0.04 -0.01 -0.06 l -0.01 -0.05 c 0 -0.02 -0.01 -0.04 -0.02 -0.06 l -0.02 -0.05 c -0.01 -0.02 -0.02 -0.04 -0.03 -0.06 l -0.02 -0.04 l -0.03 -0.06 l -0.03 -0.04 l -0.04 -0.06 c -0.01 -0.01 -0.02 -0.02 -0.03 -0.03 c -0.01 -0.02 -0.03 -0.04 -0.05 -0.05 l -0.02 -0.02 l -0.02 -0.01 c -0.02 -0.02 -0.03 -0.03 -0.05 -0.05 l -0.04 -0.03 l -0.05 -0.04 l -0.05 -0.03 l -0.02 -0.01 L 51.08 10.37 l -0.02 -0.01 c -0.66 -0.38 -1.47 -0.38 -2.12 0 l -0.02 0.02 L 15.3 31.03 l -0.02 0.01 l -0.06 0.04 c -0.01 0.01 -0.03 0.02 -0.04 0.03 l -0.05 0.04 l -0.04 0.04 c -0.01 0.01 -0.02 0.02 -0.04 0.04 c -0.01 0.01 -0.03 0.03 -0.04 0.05 l -0.03 0.04 l -0.04 0.05 c -0.01 0.01 -0.02 0.03 -0.03 0.05 c -0.01 0.02 -0.02 0.03 -0.03 0.05 c -0.01 0.02 -0.02 0.04 -0.03 0.06 l -0.02 0.04 c -0.01 0.02 -0.02 0.05 -0.03 0.07 c 0 0.01 -0.01 0.02 -0.01 0.04 c -0.01 0.02 -0.01 0.05 -0.02 0.07 c -0.01 0.02 -0.01 0.03 -0.01 0.04 c 0 0.01 -0.01 0.04 -0.01 0.06 c 0 0.02 0 0.03 -0.01 0.05 s 0 0.03 0 0.05 s 0 0.05 0 0.07 c 0 0.02 0 0.01 0 0.01 l -0.06 3.45 v 0.02 c 0 1.94 1.57 3.51 3.52 3.52 h 0.7 v 1.61 c 0 1.55 1.02 2.92 2.5 3.37 v 29.18 c -1.48 0.45 -2.5 1.82 -2.5 3.37 v 1.78 c -1.04 0.22 -1.93 0.91 -2.4 1.87 l -1.37 2.74 h -0.17 c -1.33 0 -2.55 0.75 -3.14 1.94 l -1.7 3.39 c -0.29 0.58 -0.05 1.28 0.53 1.57 c 0.16 0.08 0.34 0.12 0.52 0.12 h 77.66 c 0.65 0 1.17 -0.52 1.17 -1.17 C 90 88.57 89.96 88.39 89.88 88.23 z M 78.75 76.51 l 0 0.01 v 1.69 h -9.54 v -1.7 c 0 -0.65 0.52 -1.17 1.17 -1.17 h 7.19 C 78.23 75.34 78.75 75.86 78.75 76.51 z M 30.47 73.1 V 44.01 c 1.56 -0.4 2.65 -1.8 2.66 -3.41 v -1.61 h 33.75 v 1.61 c 0 1.61 1.1 3.01 2.66 3.41 V 73.1 c -1.56 0.4 -2.65 1.8 -2.66 3.41 v 1.7 H 33.13 v -1.7 C 33.12 74.9 32.03 73.49 30.47 73.1 z M 71.88 72.99 V 44.11 h 4.38 v 28.88 H 71.88 z M 78.75 40.6 c 0 0.65 -0.53 1.17 -1.17 1.17 h -7.19 c -0.65 0 -1.17 -0.52 -1.17 -1.17 v -1.61 h 9.53 V 40.6 z M 50 12.46 l 30.04 18.4 H 20.06 L 50 12.46 z M 20.08 36.63 c -0.07 0 -0.13 0.01 -0.2 0.02 H 18.2 c -0.64 0 -1.17 -0.52 -1.17 -1.16 l 0.03 -2.28 H 83 l -0.03 2.26 v 0.02 c 0 0.65 -0.52 1.17 -1.17 1.17 h -1.68 c -0.13 -0.02 -0.26 -0.02 -0.39 0 H 68.24 c -0.13 -0.02 -0.26 -0.02 -0.39 0 h -35.7 c -0.13 -0.02 -0.26 -0.02 -0.39 0 H 20.27 C 20.21 36.63 20.14 36.63 20.08 36.63 z M 21.25 40.6 v -1.61 h 9.53 v 1.61 c 0 0.65 -0.53 1.17 -1.17 1.17 h -7.19 C 21.78 41.77 21.25 41.24 21.25 40.6 z M 28.13 44.11 v 28.88 h -4.38 V 44.11 H 28.13 z M 21.25 76.51 c 0 -0.65 0.52 -1.17 1.17 -1.17 h 7.19 c 0.65 0 1.17 0.52 1.17 1.17 v 1.7 h -9.53 V 76.51 z M 18.6 81.19 c 0.2 -0.4 0.6 -0.65 1.05 -0.64 h 60.7 c 0.44 0 0.85 0.25 1.05 0.65 l 0.85 1.7 H 17.76 L 18.6 81.19 z M 13.07 87.58 l 0.85 -1.7 c 0.2 -0.4 0.6 -0.65 1.05 -0.65 h 70.07 c 0.44 0 0.85 0.25 1.05 0.65 l 0.85 1.7 H 13.07 z" stroke-linecap="round" />
</g>
		<g transform="matrix(1 0 0 1 -24.85 50.94)" style=""  >
		<text xml:space="preserve" font-family="'Helvetica Neue', Helvetica, Arial-Unicode, Arial, Sans-serif" font-size="5" font-style="normal" font-weight="bold" style="stroke: none; stroke-width: 1; stroke-dasharray: none; stroke-linecap: butt; stroke-dashoffset: 0; stroke-linejoin: miter; stroke-miterlimit: 4; fill: rgb(0,0,0); fill-rule: nonzero; opacity: 1; white-space: pre;" ><tspan x="-25.15" y="1.57" >Created by Novri anti</tspan></text>
</g>
		<g transform="matrix(1 0 0 1 -23.75 55.94)" style=""  >
		<text xml:space="preserve" font-family="'Helvetica Neue', Helvetica, Arial-Unicode, Arial, Sans-serif" font-size="5" font-style="normal" font-weight="bold" style="stroke: none; stroke-width: 1; stroke-dasharray: none; stroke-linecap: butt; stroke-dashoffset: 0; stroke-linejoin: miter; stroke-miterlimit: 4; fill: rgb(0,0,0); fill-rule: nonzero; opacity: 1; white-space: pre;" ><tspan x="-26.25" y="1.57" >from the Noun Project</tspan></text>
</g>
</g>
</g>
</svg>